<svg xmlns="http://www.w3.org/2000/svg" width="416" height="804" viewBox="0 0 416 804"><defs><style>.a{opacity:0.2;}.b,.c,.m{fill:none;}.b{stroke:#333;}.b,.c,.d{stroke-linecap:round;stroke-width:3px;}.c,.d{stroke:#707070;}.d,.e,.f{fill:#333;}.d,.e{fill-rule:evenodd;}.g{fill:#fe6c59;}.h{fill:#feb8b9;}.i{fill:#feac00;}.j{fill:#055068;}.k{fill:#82d4de;}.l{fill:#e9d9bb;}.n{fill:#f3f3f3;}.o{stroke:none;}</style></defs><g transform="translate(-747 -55)"><g class="a"><g class="b" transform="translate(757 55)"><rect class="o" width="406" height="804" rx="45"/><rect class="m" x="1.5" y="1.5" width="403" height="801" rx="43.5"/></g><path class="b" d="M9,17.832,0,9,9,0" transform="translate(793 145)"/><line class="c" x2="350" transform="translate(773.5 182.5)"/><line class="b" x2="375" transform="translate(773.5 741.5)"/><path class="d" d="M2-21H20a2,2,0,0,1,2,2V-2.5a2,2,0,0,1-2,2H2a2,2,0,0,1-2-2V-19A2,2,0,0,1,2-21Zm1.5,5v2.5H6V-16Zm4,0v2.5H10V-16Zm4,0v2.5H14V-16Zm-6,4v2.5H8V-12Zm-2,5.5V-4H18V-6.5Zm6-5.5v2.5H12V-12Zm4,0v2.5H16V-12Zm2-4v2.5H18V-16Z" transform="translate(787 776)"/><line class="b" y2="46" transform="translate(823.5 741.5)"/><g class="b" transform="translate(773 120)"><rect class="o" width="375" height="667" rx="10"/><rect class="m" x="1.5" y="1.5" width="372" height="664" rx="8.5"/></g><path class="e" d="M4.5,0,9-5H0Z" transform="translate(976 754)"/><path class="f" d="M-398-11a4,4,0,0,1,4-4,4,4,0,0,1,4,4,4,4,0,0,1-4,4A4,4,0,0,1-398-11Zm-16,0a4,4,0,0,1,4-4,4,4,0,0,1,4,4,4,4,0,0,1-4,4A4,4,0,0,1-414-11Zm-16,0a4,4,0,0,1,4-4,4,4,0,0,1,4,4,4,4,0,0,1-4,4A4,4,0,0,1-430-11Zm-16,0a4,4,0,0,1,4-4,4,4,0,0,1,4,4,4,4,0,0,1-4,4A4,4,0,0,1-446-11Z" transform="translate(1379 165)"/><path class="f" d="M-398-11a4,4,0,0,1,4-4,4,4,0,0,1,4,4,4,4,0,0,1-4,4A4,4,0,0,1-398-11Zm-16,0a4,4,0,0,1,4-4,4,4,0,0,1,4,4,4,4,0,0,1-4,4A4,4,0,0,1-414-11Zm-16,0a4,4,0,0,1,4-4,4,4,0,0,1,4,4,4,4,0,0,1-4,4A4,4,0,0,1-430-11Zm-16,0a4,4,0,0,1,4-4,4,4,0,0,1,4,4,4,4,0,0,1-4,4A4,4,0,0,1-446-11Z" transform="translate(1399 777)"/></g><g transform="translate(-11370 -1965)"><rect class="g" width="125.067" height="126.765" rx="10" transform="translate(12117 2430)"/><rect class="h" width="125.067" height="126.765" rx="10" transform="translate(12267.967 2579.765)"/><rect class="i" width="125.067" height="126.765" rx="10" transform="translate(12143 2579.765)"/><rect class="j" width="125.067" height="126.765" rx="10" transform="translate(12392.934 2453)"/><rect class="k" width="125.067" height="126.765" rx="10" transform="translate(12391.934 2579.765)"/><rect class="l" width="125.067" height="126.765" rx="10" transform="translate(12241.967 2430)"/><g transform="translate(12152.662 2468.17)"><path class="m" d="M0,0H53.942V53.942H0Z"/><path class="n" d="M37.325,29.468A4.969,4.969,0,0,0,41.694,26.9L50.632,10.69a2.487,2.487,0,0,0-2.172-3.7H11.511L9.164,2H1V6.994H5.993l8.988,18.953L11.61,32.04a5,5,0,0,0,4.369,7.416H45.938V34.463H15.979l2.746-4.994ZM13.882,11.988H44.216L37.325,24.474H19.8Zm2.1,29.965a4.994,4.994,0,1,0,4.993,4.994A4.987,4.987,0,0,0,15.979,41.954Zm24.966,0a4.994,4.994,0,1,0,4.993,4.994A4.987,4.987,0,0,0,40.945,41.954Z" transform="translate(0 0)"/></g><g transform="translate(12178.662 2617.935)"><path class="m" d="M0,0H53.942V53.942H0Z"/><path class="n" d="M26.971,10.428,39.457,22.854V44.42H34.463V27.852H19.48V44.42H14.486V22.854L26.971,10.428m0-7.428L2,27.852H9.491V49.942H24.474V33.375h4.994V49.942H44.451V27.852h7.491Z"/></g><g transform="translate(12304.589 2617.985)"><path class="n" d="M29.155,3.156C18.5,3.156,8.376,2.208,4.51,12.124c-1.6,4.1-1.365,9.415-1.365,17.031,0,6.683-.214,12.964,1.365,17.028,3.857,9.922,14.06,8.972,24.639,8.972,10.206,0,20.73,1.062,24.642-8.972,1.6-4.137,1.365-9.376,1.365-17.028,0-10.157.561-16.714-4.368-21.637C45.8,2.531,39.05,3.156,29.143,3.156ZM26.824,7.841c22.232-.035,25.062-2.505,23.5,31.811-.555,12.137-9.8,10.805-21.167,10.805-20.724,0-21.32-.593-21.32-21.314,0-20.962,1.644-21.291,18.986-21.308Zm16.215,4.316a3.119,3.119,0,1,0,3.12,3.119A3.12,3.12,0,0,0,43.039,12.156ZM29.155,15.8A13.35,13.35,0,1,0,42.508,29.155,13.354,13.354,0,0,0,29.155,15.8Zm0,4.685c11.463,0,11.477,17.333,0,17.333C17.7,37.821,17.678,20.488,29.155,20.488Z" transform="translate(-3.133 -3.13)"/></g><path class="n" d="M-2887.275,1113.658h-53.942v-42.691h53.942Zm-48.906-5.036h43.87V1076h-43.87Zm11.446-25.758h-5.029v5.029h5.029Zm8.473,0h-5.03v5.029h5.03Zm8.473-.013h-5.029v5.029h5.029Zm8.473,0h-5.03v5.029h5.03Zm-25.458,12.6h-5.03v5.03h5.03Zm8.512,0h-5.03v5.03h5.03Z" transform="translate(15218.847 1402.897)"/><path class="n" d="M-3045.224,1032.961h-25.911v-5.036h23.393v-6.08a10.454,10.454,0,0,1-4.927-2.783,10.46,10.46,0,0,1-3.085-7.446,10.549,10.549,0,0,1,8.012-10.226v-6.084h-23.393V990.27h25.911a2.517,2.517,0,0,1,2.518,2.518V1003.6a2.517,2.517,0,0,1-2.518,2.518,5.5,5.5,0,0,0-5.494,5.494,5.457,5.457,0,0,0,1.609,3.885,5.456,5.456,0,0,0,3.884,1.609h0a2.518,2.518,0,0,1,1.781.738,2.519,2.519,0,0,1,.738,1.78v10.816A2.518,2.518,0,0,1-3045.224,1032.961Zm-35.585-5.036h-10.8v-6.083a10.551,10.551,0,0,0,8.012-10.227,10.549,10.549,0,0,0-8.012-10.226v-6.084h10.8V990.27h-13.321a2.517,2.517,0,0,0-2.518,2.518V1003.6a2.517,2.517,0,0,0,2.518,2.518,5.5,5.5,0,0,1,5.494,5.494,5.5,5.5,0,0,1-5.494,5.494,2.518,2.518,0,0,0-2.518,2.518v10.815a2.518,2.518,0,0,0,2.518,2.518h13.321Zm7.2-23.432h-5.036v12.568h5.036Z" transform="translate(15525.244 1506.594)"/><path class="n" d="M501.08,1136.845h0c1.04,0,2.037-.007,3-.014.885-.006,1.742-.012,2.573-.012,6.353,0,9.568.38,11.824,2.634,2.576,2.574,2.665,6.318,2.62,14.543-.005.919-.01,1.869-.01,2.854q0,1.36.006,2.622c.021,5.595.036,9.64-.964,12.235-1.57,4.019-4.648,5.181-13.714,5.181-.853,0-1.7-.008-2.6-.016s-1.818-.016-2.738-.016c-.871,0-1.74.006-2.6.013-.822.006-1.639.012-2.448.012-9.414,0-12.423-1.112-14-5.174-1-2.568-.98-7.714-.963-12.691q0-1.074.005-2.165,0-1.339-.006-2.586c-.02-5.637-.035-9.709.962-12.268,1.584-4.064,4.593-5.176,14-5.176.809,0,1.627.006,2.451.012.865.006,1.736.013,2.61.013m5.578-6.019c-1.741,0-3.6.025-5.578.025h0c-1.708,0-3.4-.025-5.062-.025-8.681,0-16.334.667-19.58,8.993-1.6,4.1-1.365,9.415-1.365,17.031,0,6.683-.214,12.964,1.365,17.028,3.237,8.326,10.943,9,19.589,9,1.658,0,3.349-.025,5.051-.025,1.783,0,3.576.032,5.342.032,8.34,0,16.071-.723,19.3-9,1.6-4.136,1.365-9.376,1.365-17.028,0-10.157.561-16.714-4.368-21.637-3.991-3.988-9.106-4.387-16.06-4.387Zm1.692,25.872h-4.427v16.213h-6.705V1156.7h-3.189V1151h3.189v-3.688c0-2.637,1.253-6.766,6.765-6.766l4.967.021v5.531h-3.6a1.365,1.365,0,0,0-1.422,1.553v3.354h5.011Z" transform="translate(11953.434 1487.109)"/></g></g></svg>