<svg xmlns="http://www.w3.org/2000/svg" xmlns:xlink="http://www.w3.org/1999/xlink" width="272" height="136" viewBox="0 0 272 136"><defs><style>.a,.d{fill:#055068;}.b{fill:url(#a);}.c{fill:#82d4de;}.d{stroke:rgba(0,0,0,0);stroke-miterlimit:10;opacity:0.2;mix-blend-mode:multiply;isolation:isolate;}.e{fill:none;}</style><linearGradient id="a" x1="0.171" y1="0.268" x2="0.753" y2="0.414" gradientUnits="objectBoundingBox"><stop offset="0" stop-color="#82d4de"/><stop offset="1" stop-color="#82d4de" stop-opacity="0.8"/></linearGradient></defs><g transform="translate(-1474 -809)"><path class="a" d="M2367.75,5672.538l135.61,135.449-271.082.006Z" transform="translate(-757.75 -4863.039)"/><path class="b" d="M2367.75,5672.538l135.612,135.445-58.333.034Z" transform="translate(-757.788 -4863.039)"/><path class="c" d="M2367.75,5672.538l78.328,135.5-213.781-.067Z" transform="translate(-757.75 -4863.039)"/><path class="d" d="M2.75,27.5a2.75,2.75,0,1,1,0-5.5H16.256a2.75,2.75,0,0,1,0,5.5Zm3-11a2.75,2.75,0,0,1,0-5.5H19.256a2.75,2.75,0,1,1,0,5.5Zm3-11a2.75,2.75,0,0,1,0-5.5H22.255a2.75,2.75,0,1,1,0,5.5Z" transform="translate(1580.824 874.746)"/><rect class="e" width="272" height="136" transform="translate(1474 809)"/></g></svg>