<svg xmlns="http://www.w3.org/2000/svg" xmlns:xlink="http://www.w3.org/1999/xlink" width="272" height="308" viewBox="0 0 272 308"><defs><style>.a,.i{fill:none;}.a{stroke:#055068;stroke-linecap:round;stroke-width:6px;stroke-dasharray:7 12;}.b{fill:#fff;}.c{fill:#15efa1;}.d{fill:#055068;}.e{fill:url(#a);}.f{fill:#82d4de;}.g,.h{fill:#f3f3f3;}.g{opacity:0.1;}</style><radialGradient id="a" cx="0.448" cy="0.543" r="0.612" gradientTransform="matrix(-0.667, -0.745, 0.732, -0.656, 0.15, 1.241)" gradientUnits="objectBoundingBox"><stop offset="0" stop-color="#82d4de"/><stop offset="0.764" stop-color="#82d4de"/><stop offset="1" stop-color="#82d4de" stop-opacity="0.502"/></radialGradient></defs><g transform="translate(-1474 -485)"><path class="a" d="M102.772,17.7C73.172-5.508,25.687-8.983,0,26.085" transform="matrix(-0.035, 0.999, -0.999, -0.035, 1639.673, 520.669)"/><circle class="b" cx="17.5" cy="17.5" r="17.5" transform="translate(1571.984 485)"/><circle class="c" cx="13" cy="13" r="13" transform="translate(1573.985 487)"/><rect class="d" width="157.5" height="249.973" rx="78.75" transform="translate(1734.811 633.781) rotate(90)"/><rect class="e" width="157.5" height="249.973" rx="78.75" transform="translate(1734.811 633.781) rotate(90)"/><rect class="f" width="140.5" height="233.973" rx="70.25" transform="translate(1718.811 633.782) rotate(90)"/><rect class="d" width="107.5" height="190.011" rx="53.75" transform="translate(1693.848 644.783) rotate(90)"/><rect class="g" width="99.5" height="178.011" rx="49.75" transform="translate(1684.848 645.783) rotate(90)"/><rect class="h" width="20.5" height="31.005" rx="10.25" transform="translate(1542.083 674.529)"/><rect class="h" width="20.5" height="33.005" rx="10.25" transform="translate(1616.072 673.529)"/><rect class="h" width="8.5" height="33.005" rx="4.25" transform="translate(1605.83 703.779) rotate(90)"/><rect class="i" width="272" height="308" transform="translate(1474 485)"/></g></svg>